<?xml version="1.0" standalone="no"?>
<!DOCTYPE svg PUBLIC "-//W3C//DTD SVG 20010904//EN"
 "http://www.w3.org/TR/2001/REC-SVG-20010904/DTD/svg10.dtd">
<svg version="1.0" xmlns="http://www.w3.org/2000/svg"
 width="462.000000pt" height="541.000000pt" viewBox="0 0 462.000000 541.000000"
 preserveAspectRatio="xMidYMid meet">

<g transform="translate(0.000000,541.000000) scale(0.100000,-0.100000)"
fill="#000000" stroke="none">
<path d="M2520 4628 c-19 -6 -94 -13 -167 -17 -124 -6 -133 -7 -160 -32 -15
-15 -46 -35 -67 -45 -43 -20 -165 -141 -220 -219 -35 -49 -79 -132 -110 -209
-22 -53 -20 -144 4 -200 19 -45 33 -56 45 -36 3 5 28 9 56 8 37 -2 50 -7 55
-20 3 -10 9 -18 14 -18 4 0 11 -22 15 -48 9 -65 19 -81 34 -53 7 12 11 27 10
34 -5 29 15 109 33 132 11 14 17 33 14 41 -6 17 15 44 35 44 9 0 9 3 -1 15 -9
11 -6 21 15 49 26 34 73 56 120 56 11 0 28 8 36 19 17 19 227 91 267 91 12 0
25 7 29 15 15 40 142 101 157 76 5 -7 15 -7 31 -1 36 14 69 -3 106 -52 43 -59
69 -119 73 -171 2 -24 9 -54 15 -66 8 -14 10 -44 6 -84 -4 -34 -6 -75 -6 -92
3 -125 -1 -173 -18 -210 -28 -60 -31 -73 -41 -152 -11 -85 -23 -112 -79 -173
-23 -25 -50 -69 -61 -98 -24 -64 -24 -62 0 -62 11 0 20 -7 20 -15 0 -8 7 -15
15 -15 26 0 49 51 56 124 6 61 10 73 37 97 16 15 38 31 48 37 16 9 17 13 5 35
-11 21 -11 33 2 73 8 27 18 67 21 90 8 56 45 141 64 149 9 3 28 -3 43 -14 l27
-20 33 67 c31 64 33 73 33 182 1 173 -16 230 -112 373 -67 100 -252 263 -311
273 -20 4 -46 15 -58 26 -25 24 -109 31 -163 16z"/>
<path d="M2336 4111 c11 -10 102 -41 121 -41 23 0 4 19 -34 35 -38 16 -103 21
-87 6z"/>
<path d="M2690 4070 c-18 -6 -7 -8 43 -9 38 -1 67 3 67 9 0 12 -74 12 -110 0z"/>
<path d="M2435 3740 c-3 -5 3 -10 15 -10 12 0 18 5 15 10 -3 6 -10 10 -15 10
-5 0 -12 -4 -15 -10z"/>
<path d="M2585 3710 c3 -5 11 -10 16 -10 6 0 7 5 4 10 -3 6 -11 10 -16 10 -6
0 -7 -4 -4 -10z"/>
<path d="M1992 3660 c-9 -15 -9 -26 -1 -47 l12 -28 9 33 c11 42 -2 71 -20 42z"/>
<path d="M1863 3575 c3 -11 10 -43 17 -71 7 -34 22 -61 41 -80 28 -27 29 -27
29 -6 0 35 18 26 29 -14 6 -20 17 -44 26 -54 9 -10 19 -36 22 -58 l5 -40 21
21 c14 14 22 17 25 9 2 -7 8 -12 13 -12 10 0 26 -11 65 -47 14 -13 29 -23 34
-23 6 0 10 -6 10 -12 1 -17 47 -50 54 -39 7 10 -20 41 -35 41 -5 0 -9 7 -9 15
0 7 -6 18 -14 22 -7 4 -19 19 -26 33 -7 14 -37 49 -66 78 -30 29 -56 65 -60
80 -5 26 -18 61 -34 92 -4 8 -18 15 -31 15 -22 0 -67 20 -79 34 -3 3 -14 13
-24 21 -17 14 -18 13 -13 -5z"/>
<path d="M2004 3056 c-4 -11 0 -24 10 -34 15 -15 16 -15 16 3 0 11 -4 27 -10
35 -8 12 -10 12 -16 -4z"/>
<path d="M1870 2991 c-70 -80 -137 -114 -291 -146 -144 -31 -345 -80 -385 -96
-16 -5 -62 -17 -103 -24 -107 -21 -153 -47 -209 -118 -87 -110 -126 -202 -165
-382 -33 -151 -67 -303 -81 -355 -8 -30 -24 -89 -35 -130 -11 -41 -33 -127
-50 -190 -16 -63 -46 -171 -67 -240 -61 -209 -73 -260 -94 -400 -12 -74 -26
-153 -32 -175 -21 -77 5 -618 33 -687 l11 -28 769 0 c506 0 769 -3 769 -10 0
-6 56 -10 149 -10 l150 0 3 37 c2 28 8 39 22 42 23 4 46 -24 46 -56 0 -21 4
-23 55 -23 l55 0 0 45 c0 34 -5 47 -20 55 -29 16 -14 40 26 40 l34 0 0 -70 c0
-60 3 -70 18 -70 14 0 17 9 17 56 0 47 4 59 24 75 30 24 52 24 85 -2 22 -18
26 -28 26 -75 l0 -54 34 0 c53 0 60 38 22 125 -19 42 -35 61 -72 85 -44 27
-55 30 -135 30 -83 0 -88 -1 -91 -22 -2 -16 -11 -24 -28 -26 -33 -3 -100 57
-100 90 0 27 67 98 91 98 20 0 39 -20 39 -42 0 -16 10 -18 90 -18 69 0 100 -5
133 -20 103 -48 158 -128 165 -237 l4 -63 144 0 c84 0 145 4 149 10 8 14 425
14 425 0 0 -6 120 -10 340 -10 l340 0 0 125 c0 120 1 127 25 150 15 16 36 25
55 25 l30 0 0 148 c0 163 -13 301 -35 378 -8 28 -19 84 -25 125 -5 41 -23 133
-40 204 -16 72 -39 175 -51 230 -12 55 -39 155 -60 221 -43 135 -98 354 -158
637 -58 268 -91 367 -138 409 -21 19 -110 58 -292 128 -74 28 -130 56 -140 69
-13 17 -46 27 -164 52 -178 36 -193 41 -235 82 -24 23 -35 28 -44 19 -8 -8 -7
-23 7 -58 15 -40 16 -52 5 -88 -8 -25 -12 -86 -11 -156 1 -77 -5 -156 -18
-240 -12 -69 -21 -129 -20 -135 1 -26 30 89 39 158 10 79 26 126 39 111 12
-15 108 -456 131 -598 11 -71 10 -81 -4 -92 -9 -6 -16 -23 -16 -37 0 -21 4
-24 22 -19 19 5 21 2 15 -32 -4 -22 0 -50 9 -72 11 -25 12 -39 5 -48 -7 -9 -8
-23 -1 -42 11 -36 30 -290 30 -416 0 -51 5 -120 10 -153 5 -33 12 -109 16
-170 3 -60 12 -144 20 -185 8 -41 19 -140 24 -220 9 -132 22 -229 49 -365 5
-27 9 -51 8 -52 -1 0 -45 -3 -97 -5 l-95 -3 -8 40 c-41 193 -127 323 -271 409
-74 44 -136 65 -239 80 l-80 11 55 53 55 53 7 107 c3 59 6 253 7 432 1 243 4
333 14 356 8 21 10 35 3 42 -5 5 -11 134 -14 303 -6 368 -14 436 -54 495 -28
42 -29 47 -16 73 8 15 22 33 30 40 9 8 16 17 16 21 0 12 -91 70 -110 70 -14 0
-90 -99 -90 -119 0 -4 9 -16 20 -26 25 -23 25 -46 1 -93 -28 -56 -48 -141 -66
-282 -38 -309 -48 -370 -61 -370 -9 0 -10 -7 -2 -27 8 -21 4 -80 -16 -233 -14
-113 -30 -248 -36 -300 -5 -52 -16 -153 -25 -225 -8 -71 -15 -156 -15 -187 0
-57 1 -58 70 -135 74 -83 76 -90 17 -114 -76 -30 -168 -108 -224 -190 -42 -61
-84 -166 -92 -232 l-6 -52 -105 0 c-58 0 -149 1 -202 4 l-98 4 0 46 c0 56 22
175 48 256 22 69 48 173 92 365 65 288 107 457 142 575 43 144 86 460 93 674
9 269 13 353 19 359 4 3 13 -3 21 -14 20 -26 19 -17 -6 52 -19 53 -21 82 -23
294 0 129 3 261 7 293 6 37 5 57 -2 57 -5 0 -33 -27 -61 -59z m-752 -2073 c-4
-74 -22 -84 -26 -14 -4 54 2 76 18 76 7 0 10 -23 8 -62z m-53 -405 c-12 -112
-17 -133 -30 -133 -20 0 -27 50 -15 106 17 76 20 84 36 84 13 0 14 -10 9 -57z
m2579 12 c-4 -8 -10 -15 -15 -15 -5 0 -9 7 -9 15 0 8 7 15 15 15 9 0 12 -6 9
-15z"/>
<path d="M1976 2317 c3 -10 9 -15 12 -12 3 3 0 11 -7 18 -10 9 -11 8 -5 -6z"/>
<path d="M2851 2242 c-7 -40 -11 -76 -8 -78 8 -8 29 102 25 128 -2 13 -10 -10
-17 -50z"/>
<path d="M2040 2181 c0 -6 4 -13 10 -16 6 -3 7 1 4 9 -7 18 -14 21 -14 7z"/>
<path d="M2542 88 c-25 -25 -11 -88 19 -88 22 0 34 38 25 75 -7 27 -25 32 -44
13z"/>
</g>
</svg>
